<?xml version="1.0" encoding="UTF-8"?>
<svg id="Layer_1" xmlns="http://www.w3.org/2000/svg" version="1.1" viewBox="0 0 1024 1024">
  <!-- Generator: Adobe Illustrator 29.8.1, SVG Export Plug-In . SVG Version: 2.1.1 Build 2)  -->
  <defs>
    <style>
      .st0 {
        fill: #fd0;
      }

      .st1 {
        display: none;
      }
    </style>
  </defs>
  <g id="medialab_alt">
    <g id="vpro_medialab" class="st1">
      <g id="vpro">
        <path class="st0" d="M509.09,115.63h25.68l23.74,74.88h.43l23.54-74.88h25.02l-36.15,105.68h-26.32l-35.95-105.68Z"/>
        <path class="st0" d="M624.19,115.63h22.89v15.4h.43c2.85-4.99,7.41-9.24,13.69-12.73,6.27-3.49,13.69-5.25,22.25-5.25,8.12,0,15.43,1.47,21.92,4.38,6.49,2.93,11.99,6.89,16.48,11.88,4.49,4.99,7.95,10.83,10.37,17.54,2.43,6.7,3.64,13.77,3.64,21.19,0,6.84-1.12,13.61-3.32,20.32-2.21,6.71-5.5,12.7-9.85,17.98-4.35,5.27-9.81,9.52-16.36,12.72-6.57,3.21-14.2,4.81-22.89,4.81s-16.37-1.71-22.15-5.13c-5.77-3.43-9.95-7.28-12.52-11.56h-.43v60.54l-24.17,11.12V115.63ZM679.6,201.42c4.56,0,8.77-.82,12.62-2.47,3.85-1.63,7.16-3.91,9.94-6.84,2.79-2.93,4.96-6.42,6.53-10.48,1.57-4.07,2.36-8.46,2.36-13.16s-.79-9.05-2.36-13.05c-1.57-3.99-3.74-7.46-6.53-10.38-2.78-2.92-6.1-5.24-9.94-6.95-3.86-1.71-8.06-2.56-12.62-2.56s-8.74.82-12.52,2.46c-3.78,1.64-7.06,3.92-9.84,6.85-2.79,2.92-4.96,6.41-6.53,10.48-1.58,4.06-2.36,8.45-2.36,13.15s.78,9.28,2.36,13.27c1.57,3.99,3.74,7.45,6.53,10.37,2.78,2.93,6.06,5.21,9.84,6.84,3.78,1.64,7.95,2.47,12.52,2.47Z"/>
        <path class="st0" d="M756.41,115.63h22.89v15.61h.22c2.28-4.84,6.17-9.09,11.66-12.72,5.49-3.64,11.88-5.46,19.15-5.46,2.85,0,5.63.25,8.34.75,2.71.5,5.27,1.17,7.7,2.03l-8.98,23.75c-3.56-1.85-7.7-2.78-12.41-2.78-7.13,0-12.98,2.46-17.54,7.38-4.57,4.92-6.85,11.59-6.85,20v57.12h-24.17v-105.68Z"/>
        <path class="st0" d="M884.14,223.88c-9.41,0-17.62-1.67-24.6-5.02-6.99-3.36-12.77-7.67-17.33-12.95-4.57-5.27-7.96-11.23-10.16-17.86-2.21-6.64-3.32-13.16-3.32-19.58s1.11-12.94,3.32-19.57c2.2-6.64,5.59-12.59,10.16-17.86,4.56-5.27,10.34-9.59,17.33-12.95,6.99-3.35,15.19-5.03,24.6-5.03s17.62,1.68,24.6,5.03c6.99,3.36,12.8,7.67,17.44,12.95,4.63,5.27,8.05,11.23,10.27,17.86,2.21,6.64,3.32,13.15,3.32,19.57s-1.11,12.95-3.32,19.58c-2.21,6.63-5.64,12.59-10.27,17.86-4.64,5.27-10.45,9.59-17.44,12.95-6.99,3.35-15.19,5.02-24.6,5.02ZM884.14,201.42c4.41,0,8.48-.82,12.19-2.47,3.71-1.63,6.95-3.91,9.74-6.84,2.78-2.93,4.95-6.42,6.52-10.48,1.58-4.07,2.36-8.46,2.36-13.16s-.78-9.27-2.36-13.26c-1.57-3.99-3.74-7.46-6.52-10.37-2.79-2.93-6.03-5.21-9.74-6.85-3.71-1.63-7.78-2.46-12.19-2.46s-8.31.82-12.09,2.46c-3.79,1.64-7.07,3.92-9.85,6.85-2.78,2.92-4.95,6.38-6.53,10.37-1.57,3.99-2.35,8.42-2.35,13.26s.78,9.09,2.35,13.16c1.58,4.06,3.75,7.56,6.53,10.48,2.78,2.93,6.06,5.21,9.85,6.84,3.78,1.64,7.81,2.47,12.09,2.47Z"/>
      </g>
      <g id="medialab">
        <path class="st0" d="M68.3,801.59h23.01v12.9h.43c2.86-4.59,6.96-8.31,12.26-11.19,5.3-2.86,11.83-4.3,19.57-4.3,8.61,0,15.74,1.54,21.41,4.62,5.66,3.09,10.13,7.5,13.44,13.23,3.72-5.74,8.87-10.14,15.45-13.23,6.57-3.08,14.58-4.62,24.03-4.62,14.16,0,24.88,4.2,32.18,12.58,7.3,8.39,10.95,19.68,10.95,33.88v62.38h-24.31v-58.08c0-8.6-1.94-15.63-5.81-21.08-3.88-5.45-10.04-8.18-18.5-8.18s-14.48,2.7-18.93,8.07c-4.45,5.38-6.67,12.45-6.67,21.18v58.08h-24.3v-58.08c0-8.6-1.97-15.63-5.91-21.08-3.95-5.45-10.14-8.18-18.61-8.18s-14.45,2.7-18.82,8.07c-4.38,5.38-6.56,12.45-6.56,21.18v58.08h-24.3v-106.26Z"/>
        <path class="st0" d="M313.1,910.43c-8.61,0-16.28-1.51-23.01-4.52-6.75-3.01-12.45-7.03-17.1-12.04-4.66-5.02-8.22-10.89-10.66-17.64-2.44-6.73-3.65-13.9-3.65-21.51s1.14-14.59,3.44-21.4c2.29-6.81,5.7-12.72,10.21-17.74,4.52-5.02,10.08-9.04,16.67-12.05,6.59-3.01,14.2-4.52,22.81-4.52s16.2,1.48,22.8,4.41c6.59,2.94,12.15,6.96,16.67,12.05,4.52,5.09,7.92,10.97,10.22,17.63,2.28,6.67,3.43,13.74,3.43,21.19,0,1.57-.07,3.15-.22,4.72-.14,1.58-.35,2.94-.64,4.09h-80.66c.43,3.87,1.57,7.39,3.44,10.54,1.86,3.16,4.11,5.81,6.77,7.96,2.66,2.15,5.71,3.84,9.14,5.06,3.44,1.22,7.03,1.82,10.75,1.82,6.45,0,12.16-1.1,17.1-3.33,4.95-2.22,8.93-4.99,11.95-8.28l15.05,14.63c-4.45,5.87-10.51,10.5-18.17,13.87-7.67,3.37-16.46,5.05-26.35,5.05ZM311.81,819.87c-8.04,0-14.52,2.29-19.47,6.88-4.95,4.6-7.92,10.4-8.92,17.43h56.78c-1-7.03-4.01-12.83-9.03-17.43-5.02-4.59-11.47-6.88-19.35-6.88Z"/>
        <path class="st0" d="M430.11,910.43c-8.89,0-16.64-1.64-23.23-4.94-6.6-3.31-12.08-7.61-16.46-12.91-4.37-5.3-7.64-11.33-9.78-18.07-2.15-6.74-3.23-13.56-3.23-20.44,0-7.46,1.21-14.55,3.65-21.3,2.44-6.73,5.95-12.57,10.55-17.52,4.59-4.95,10.11-8.89,16.56-11.84,6.45-2.93,13.7-4.41,21.73-4.41,9.03,0,16.45,1.71,22.27,5.12,5.81,3.4,10.07,7.24,12.79,11.5h.43v-56.19l24.3-12.16v160.58h-23.01v-15.66h-.42c-3.02,5.07-7.65,9.38-13.88,12.93-6.23,3.54-13.66,5.31-22.26,5.31ZM433.98,887.84c4.45,0,8.61-.83,12.48-2.48,3.88-1.64,7.21-3.94,10.01-6.88,2.79-2.94,4.98-6.45,6.56-10.54,1.57-4.09,2.36-8.5,2.36-13.23s-.79-9.1-2.36-13.12c-1.58-4.01-3.77-7.53-6.56-10.54-2.79-3.02-6.1-5.34-9.9-7-3.8-1.64-7.99-2.47-12.58-2.47s-9.03.83-12.9,2.47c-3.88,1.65-7.21,3.98-10.01,7-2.79,3.01-4.98,6.52-6.56,10.54-1.57,4.01-2.36,8.38-2.36,13.12s.79,9.14,2.36,13.23c1.58,4.08,3.8,7.6,6.67,10.54,2.86,2.94,6.24,5.23,10.12,6.88,3.87,1.65,8.1,2.48,12.68,2.48Z"/>
        <path class="st0" d="M529.7,789.11c-4.59,0-8.21-1.41-10.86-4.2-2.66-2.79-3.98-6.13-3.98-10s1.32-7.24,3.98-10.12c2.66-2.86,6.28-4.3,10.86-4.3s8.42,1.44,11.08,4.3c2.66,2.87,3.98,6.24,3.98,10.12s-1.32,7.2-3.98,10c-2.66,2.79-6.35,4.2-11.08,4.2ZM517.65,801.59h24.3v106.26h-24.3v-106.26Z"/>
        <path class="st0" d="M599.39,910.43c-5.59,0-10.75-.75-15.49-2.25-4.73-1.51-8.79-3.66-12.15-6.45-3.37-2.79-5.99-6.17-7.85-10.12-1.87-3.94-2.79-8.42-2.79-13.44,0-10.18,3.62-18.1,10.86-23.77,7.23-5.66,17.31-8.49,30.22-8.49,6.45,0,12.23.65,17.32,1.94,5.09,1.29,9.28,2.86,12.58,4.73v-9.9c0-7.17-2.26-12.58-6.78-16.24-4.52-3.66-10.29-5.49-17.32-5.49-5.59,0-10.5.9-14.73,2.69-4.23,1.8-7.57,4.05-10.01,6.78l-15.05-14.41c3.88-4.87,9.29-8.92,16.25-12.15,6.95-3.23,15.16-4.84,24.63-4.84,15.77,0,27.49,3.7,35.17,11.08,7.67,7.39,11.51,17.39,11.51,30.01v67.75h-23.66v-11.34h-.43c-2.87,4.21-6.81,7.58-11.83,10.12-5.03,2.54-11.84,3.81-20.44,3.81ZM607.01,891.5c7.35,0,13.36-2.07,18.05-6.19,4.68-4.13,7.03-9.61,7.03-16.44v-1.06c-3.03-1.14-6.59-2.07-10.7-2.77-4.11-.71-8.68-1.07-13.73-1.07-6.62,0-11.99,1.14-16.1,3.41-4.11,2.28-6.16,5.77-6.16,10.46,0,4.27,1.94,7.62,5.83,10.04,3.89,2.42,9.15,3.63,15.77,3.63Z"/>
        <path class="st0" d="M680.91,759.43h24.3v148.42h-24.3v-148.42Z"/>
        <path class="st0" d="M762.65,910.43c-5.59,0-10.75-.75-15.49-2.25-4.73-1.51-8.79-3.66-12.15-6.45-3.37-2.79-5.99-6.17-7.85-10.12-1.87-3.94-2.79-8.42-2.79-13.44,0-10.18,3.62-18.1,10.86-23.77,7.23-5.66,17.31-8.49,30.22-8.49,6.45,0,12.23.65,17.32,1.94,5.09,1.29,9.28,2.86,12.58,4.73v-9.9c0-7.17-2.26-12.58-6.78-16.24-4.52-3.66-10.29-5.49-17.32-5.49-5.59,0-10.5.9-14.73,2.69-4.23,1.8-7.57,4.05-10.01,6.78l-15.05-14.41c3.88-4.87,9.29-8.92,16.25-12.15,6.95-3.23,15.16-4.84,24.63-4.84,15.77,0,27.49,3.7,35.17,11.08,7.67,7.39,11.51,17.39,11.51,30.01v67.75h-23.66v-11.34h-.43c-2.87,4.21-6.81,7.58-11.83,10.12-5.03,2.54-11.84,3.81-20.44,3.81ZM770.27,891.5c7.35,0,13.36-2.07,18.05-6.19,4.68-4.13,7.03-9.61,7.03-16.44v-1.06c-3.03-1.14-6.59-2.07-10.7-2.77-4.11-.71-8.68-1.07-13.73-1.07-6.62,0-11.99,1.14-16.1,3.41-4.11,2.28-6.16,5.77-6.16,10.46,0,4.27,1.94,7.62,5.83,10.04,3.89,2.42,9.15,3.63,15.77,3.63Z"/>
        <path class="st0" d="M903.76,910.43c-8.76,0-16.25-1.77-22.48-5.31-6.24-3.55-10.79-7.86-13.66-12.93h-.43v15.66h-23.01v-148.42h24.3v56.19h.43c2.58-4.26,6.78-8.1,12.58-11.5,5.81-3.4,13.22-5.12,22.27-5.12,8.03,0,15.3,1.48,21.82,4.41,6.52,2.94,12.08,6.89,16.68,11.84,4.59,4.95,8.1,10.79,10.54,17.52,2.44,6.75,3.66,13.84,3.66,21.3,0,6.88-1.08,13.7-3.23,20.44-2.15,6.74-5.42,12.76-9.79,18.07-4.38,5.3-9.86,9.6-16.45,12.91-6.6,3.3-14.35,4.94-23.23,4.94ZM899.89,887.84c4.59,0,8.82-.83,12.69-2.48,3.87-1.64,7.2-3.94,10-6.88,2.8-2.94,4.99-6.45,6.56-10.54,1.57-4.09,2.37-8.5,2.37-13.23s-.8-9.1-2.37-13.12c-1.57-4.01-3.76-7.53-6.56-10.54-2.79-3.02-6.13-5.34-10-7-3.88-1.64-8.11-2.47-12.69-2.47s-8.79.83-12.58,2.47c-3.8,1.65-7.09,3.98-9.89,7-2.8,3.01-4.99,6.52-6.56,10.54-1.58,4.01-2.37,8.38-2.37,13.12s.79,9.14,2.37,13.23c1.57,4.08,3.76,7.6,6.56,10.54,2.79,2.94,6.09,5.23,9.89,6.88,3.8,1.65,7.99,2.48,12.58,2.48Z"/>
      </g>
    </g>
    <g>
      <path d="M512.13,115.28h33.33l18.99,64.98h.42l18.99-64.98h32.49l-35.65,104.22h-33.12l-35.44-104.22Z"/>
      <path d="M628.58,115.28h29.53v13.08h.43c2.95-4.22,7.12-7.87,12.52-10.97,5.4-3.09,12.1-4.64,20.1-4.64,7.43,0,14.24,1.34,20.41,4.01,6.17,2.67,11.5,6.4,15.99,11.18,4.49,4.78,7.96,10.44,10.42,16.98,2.45,6.54,3.68,13.68,3.68,21.41,0,6.33-.91,12.76-2.74,19.3-1.83,6.54-4.74,12.52-8.73,17.93-4,5.42-9.22,9.85-15.68,13.29-6.45,3.44-14.24,5.17-23.35,5.17-8.14,0-14.73-1.51-19.78-4.54-5.05-3.02-8.77-6.22-11.15-9.6h-.42l.21,52.95-31.43,15.73V115.28ZM684.8,192.91c3.78,0,7.21-.67,10.29-2,3.08-1.33,5.71-3.16,7.88-5.48,2.17-2.32,3.85-5.03,5.04-8.12,1.19-3.09,1.79-6.4,1.79-9.91s-.56-6.57-1.68-9.6c-1.12-3.02-2.73-5.73-4.83-8.12-2.1-2.39-4.73-4.29-7.88-5.7-3.15-1.4-6.69-2.11-10.61-2.11s-7.63.71-10.71,2.11c-3.08,1.41-5.67,3.31-7.77,5.7-2.1,2.39-3.71,5.1-4.83,8.12-1.12,3.03-1.68,6.22-1.68,9.6s.59,6.82,1.78,9.91c1.19,3.1,2.87,5.8,5.04,8.12,2.17,2.32,4.8,4.15,7.88,5.48,3.08,1.34,6.51,2,10.29,2Z"/>
      <path d="M758.11,115.28h29.32v14.44h.21c2.81-4.47,6.96-8.42,12.45-11.84,5.48-3.42,12.24-5.13,20.25-5.13,5.49,0,10.69.77,15.61,2.32l-11.18,30.8c-3.52-1.97-7.31-2.95-11.39-2.95-3.24,0-6.33.57-9.28,1.69-2.95,1.13-5.52,2.75-7.7,4.87-2.18,2.12-3.9,4.69-5.17,7.72s-1.9,6.45-1.9,10.26v52.04h-31.22v-104.22Z"/>
      <path d="M891.86,222.02c-9.57,0-17.83-1.65-24.79-4.96-6.96-3.3-12.76-7.56-17.4-12.76-4.64-5.2-8.09-11.08-10.34-17.62-2.25-6.54-3.37-12.97-3.37-19.3s1.12-12.76,3.37-19.3c2.25-6.54,5.7-12.41,10.34-17.62,4.64-5.2,10.44-9.46,17.4-12.76,6.96-3.3,15.22-4.96,24.79-4.96s17.65,1.65,24.68,4.96c7.03,3.31,12.87,7.56,17.51,12.76,4.64,5.2,8.09,11.08,10.34,17.62,2.25,6.54,3.37,12.97,3.37,19.3s-1.13,12.76-3.37,19.3c-2.25,6.54-5.7,12.41-10.34,17.62-4.64,5.2-10.48,9.46-17.51,12.76-7.03,3.3-15.26,4.96-24.68,4.96ZM891.86,192.49c3.23,0,6.33-.63,9.28-1.9,2.95-1.27,5.52-2.99,7.7-5.17,2.18-2.18,3.9-4.82,5.17-7.91,1.27-3.09,1.9-6.47,1.9-10.13s-.63-7.03-1.9-10.13c-1.27-3.09-2.99-5.77-5.17-8.02-2.18-2.25-4.75-4.01-7.7-5.27s-6.05-1.9-9.28-1.9-6.33.63-9.28,1.9-5.52,3.03-7.7,5.27c-2.18,2.25-3.9,4.92-5.17,8.02-1.27,3.09-1.9,6.47-1.9,10.13s.63,7.03,1.9,10.13c1.27,3.1,2.99,5.73,5.17,7.91,2.18,2.18,4.75,3.9,7.7,5.17,2.95,1.27,6.05,1.9,9.28,1.9Z"/>
      <path d="M68.27,803.88h29.32v12.24h.42c2.95-4.5,6.96-8.09,12.02-10.76,5.06-2.67,11.32-4.01,18.78-4.01,8.3,0,15.12,1.37,20.46,4.11,5.34,2.74,9.63,6.58,12.87,11.5,3.66-4.78,8.61-8.58,14.87-11.39,6.26-2.81,14.31-4.22,24.15-4.22,7.59,0,14.13,1.2,19.62,3.59,5.49,2.39,9.95,5.73,13.4,10.02,3.44,4.29,5.98,9.39,7.59,15.29,1.62,5.91,2.43,12.31,2.43,19.2v58.65h-31.22v-54.22c0-3.09-.32-6.12-.95-9.07s-1.72-5.55-3.27-7.81c-1.55-2.25-3.59-4.04-6.12-5.38-2.53-1.33-5.7-2-9.49-2s-6.79.67-9.39,2c-2.6,1.34-4.82,3.1-6.65,5.27-1.83,2.18-3.16,4.75-4.01,7.7s-1.27,6.05-1.27,9.28v54.22h-31.22v-54.22c0-3.09-.32-6.12-.95-9.07s-1.72-5.55-3.27-7.81c-1.55-2.25-3.59-4.04-6.12-5.38-2.53-1.33-5.7-2-9.49-2s-6.79.67-9.39,2c-2.6,1.34-4.82,3.1-6.65,5.27-1.83,2.18-3.16,4.75-4.01,7.7s-1.27,6.05-1.27,9.28v54.22h-31.22v-104.22Z"/>
      <path d="M312.77,910.63c-9.42,0-17.58-1.65-24.47-4.96-6.89-3.3-12.62-7.56-17.19-12.76-4.57-5.2-7.95-11.08-10.13-17.62-2.18-6.54-3.27-12.97-3.27-19.3s1.02-12.76,3.06-19.3c2.04-6.54,5.2-12.41,9.49-17.62,4.29-5.2,9.81-9.46,16.56-12.76,6.75-3.3,14.84-4.96,24.26-4.96s17.47,1.65,24.16,4.96c6.68,3.31,12.13,7.56,16.35,12.76,4.22,5.2,7.31,11.08,9.28,17.62,1.97,6.54,2.95,12.97,2.95,19.3,0,1.55-.14,3.41-.42,5.59-.28,2.18-.56,3.9-.84,5.17h-73.2c.84,2.82,2.07,5.27,3.69,7.38,1.62,2.11,3.55,3.83,5.8,5.17,2.25,1.34,4.64,2.32,7.17,2.95,2.53.63,5.13.95,7.81.95,4.64,0,9.03-.74,13.18-2.21,4.15-1.48,7.35-3.48,9.6-6.01l18.99,18.35c-3.94,4.93-9.64,9.04-17.09,12.34-7.46,3.3-16.03,4.96-25.74,4.96ZM311.09,827.51c-5.35,0-10.06,1.34-14.13,4.01-4.08,2.67-6.75,7.17-8.02,13.5h44.09c-1.27-6.33-3.9-10.83-7.91-13.5-4.01-2.67-8.69-4.01-14.03-4.01Z"/>
      <path d="M423.74,910.63c-9.14,0-16.95-1.72-23.42-5.17-6.47-3.44-11.71-7.87-15.72-13.29-4.01-5.41-6.93-11.39-8.76-17.93-1.83-6.54-2.74-12.97-2.74-19.3,0-7.73,1.23-14.87,3.69-21.41,2.46-6.54,5.94-12.2,10.44-16.98,4.5-4.78,9.84-8.51,16.03-11.18,6.19-2.67,13.01-4.01,20.46-4.01,8.15,0,14.77,1.51,19.83,4.54,5.06,3.03,8.79,6.22,11.18,9.6h.36l-.15-52.95,31.43-15.73v161.29h-29.53v-13.08h-.43c-2.95,4.22-7.14,7.88-12.55,10.97-5.42,3.09-12.13,4.64-20.15,4.64ZM430.07,881.52c3.8,0,7.24-.67,10.34-2,3.09-1.33,5.73-3.16,7.91-5.48,2.18-2.32,3.87-5.03,5.06-8.12,1.19-3.09,1.79-6.4,1.79-9.92s-.56-6.57-1.69-9.6c-1.13-3.02-2.74-5.73-4.85-8.12-2.11-2.39-4.75-4.29-7.91-5.7-3.16-1.4-6.72-2.11-10.65-2.11s-7.67.7-10.76,2.11c-3.09,1.41-5.7,3.31-7.81,5.7-2.11,2.39-3.73,5.1-4.85,8.12-1.13,3.03-1.69,6.22-1.69,9.6s.6,6.82,1.79,9.92c1.19,3.09,2.88,5.8,5.06,8.12,2.18,2.32,4.82,4.15,7.91,5.48,3.09,1.34,6.54,2,10.34,2Z"/>
      <path d="M523.74,795.23c-5.91,0-10.48-1.72-13.71-5.17-3.24-3.44-4.85-7.56-4.85-12.34s1.62-8.93,4.85-12.45c3.23-3.51,7.81-5.27,13.71-5.27s10.48,1.76,13.71,5.27c3.23,3.52,4.85,7.67,4.85,12.45s-1.62,8.9-4.85,12.34c-3.24,3.45-7.81,5.17-13.71,5.17ZM508.12,803.88h31.22v104.22h-31.22v-104.22Z"/>
      <path d="M590.19,910.63c-11.68,0-20.82-2.92-27.42-8.75-6.61-5.83-9.92-13.61-9.92-23.31s3.48-18.04,10.44-23.73c6.96-5.7,17.26-8.54,30.91-8.54,5.62,0,10.9.49,15.82,1.48,4.92.99,9,2.18,12.24,3.59v-3.59c0-6.47-2.04-11.25-6.12-14.35-4.08-3.09-9.07-4.64-14.98-4.64-4.64,0-9.04.74-13.19,2.21-4.15,1.48-7.35,3.48-9.6,6.01l-18.99-18.35c3.94-4.92,9.63-9.04,17.09-12.34,7.45-3.3,16.03-4.96,25.74-4.96,8.86,0,16.42,1.05,22.68,3.16,6.26,2.11,11.36,5.06,15.3,8.86,3.94,3.8,6.82,8.37,8.65,13.71,1.83,5.35,2.74,11.18,2.74,17.51v63.5h-29.32v-9.7h-.42c-2.95,4.08-6.96,7.14-12.02,9.18-5.06,2.04-11.6,3.06-19.62,3.06ZM601.89,888.69c6.08,0,10.99-1.65,14.74-4.96,3.75-3.3,5.62-7.91,5.62-13.82v-.21c-2.97-.7-6.01-1.23-9.12-1.58-3.11-.35-6.72-.53-10.82-.53-12.16,0-18.24,3.59-18.24,10.76,0,3.52,1.63,6.12,4.88,7.81,3.25,1.69,7.57,2.53,12.94,2.53Z"/>
      <path d="M671.41,762.53h31.22v145.56h-31.22v-145.56Z"/>
      <path d="M753.47,910.63c-11.68,0-20.82-2.92-27.42-8.75-6.61-5.83-9.92-13.61-9.92-23.31s3.48-18.04,10.44-23.73c6.96-5.7,17.26-8.54,30.91-8.54,5.62,0,10.9.49,15.82,1.48,4.92.99,9,2.18,12.24,3.59v-3.59c0-6.47-2.04-11.25-6.12-14.35-4.08-3.09-9.07-4.64-14.98-4.64-4.64,0-9.04.74-13.19,2.21-4.15,1.48-7.35,3.48-9.6,6.01l-18.99-18.35c3.94-4.92,9.63-9.04,17.09-12.34,7.45-3.3,16.03-4.96,25.74-4.96,8.86,0,16.42,1.05,22.68,3.16,6.26,2.11,11.36,5.06,15.3,8.86,3.94,3.8,6.82,8.37,8.65,13.71,1.83,5.35,2.74,11.18,2.74,17.51v63.5h-29.32v-9.7h-.42c-2.95,4.08-6.96,7.14-12.02,9.18-5.06,2.04-11.6,3.06-19.62,3.06ZM765.17,888.69c6.08,0,10.99-1.65,14.74-4.96,3.75-3.3,5.62-7.91,5.62-13.82v-.21c-2.97-.7-6.01-1.23-9.12-1.58-3.11-.35-6.72-.53-10.82-.53-12.16,0-18.24,3.59-18.24,10.76,0,3.52,1.63,6.12,4.88,7.81,3.25,1.69,7.57,2.53,12.94,2.53Z"/>
      <path d="M897.26,910.63c-8,0-14.7-1.55-20.1-4.64-5.4-3.09-9.57-6.75-12.52-10.97h-.43v13.08h-29.52v-145.56h31.43v52.95h.21c2.38-3.38,6.1-6.57,11.15-9.6,5.05-3.02,11.64-4.54,19.78-4.54,7.43,0,14.24,1.34,20.41,4.01,6.17,2.67,11.5,6.4,15.99,11.18,4.49,4.78,7.96,10.44,10.42,16.98,2.45,6.54,3.68,13.68,3.68,21.41,0,6.33-.91,12.76-2.74,19.3-1.83,6.54-4.74,12.52-8.74,17.93-4,5.42-9.22,9.85-15.68,13.29-6.45,3.44-14.24,5.17-23.35,5.17ZM890.91,881.52c3.78,0,7.21-.67,10.29-2,3.08-1.33,5.71-3.16,7.88-5.48,2.17-2.32,3.85-5.03,5.04-8.12,1.19-3.09,1.79-6.4,1.79-9.92s-.56-6.57-1.68-9.6c-1.12-3.02-2.73-5.73-4.83-8.12-2.1-2.39-4.73-4.29-7.88-5.7-3.15-1.4-6.69-2.11-10.61-2.11s-7.63.7-10.71,2.11c-3.08,1.41-5.67,3.31-7.77,5.7-2.1,2.39-3.71,5.1-4.83,8.12-1.12,3.03-1.68,6.22-1.68,9.6s.59,6.82,1.78,9.92c1.19,3.09,2.87,5.8,5.04,8.12,2.17,2.32,4.8,4.15,7.88,5.48,3.08,1.34,6.51,2,10.29,2Z"/>
    </g>
    <g id="shapes">
      <polygon points="945.61 496.51 945.61 277.09 507.14 496.51 507.14 715.92 945.61 496.51"/>
      <polygon points="287.72 715.93 726.56 496.48 726.56 277.09 287.72 496.51 287.72 715.93 287.72 715.93"/>
      <polygon points="507.14 496.51 507.14 496.51 507.14 496.51 507.14 277.09 68.3 496.51 68.3 715.93 507.14 496.51"/>
    </g>
  </g>
</svg>