<?xml version="1.0" encoding="UTF-8" standalone="no"?>
<svg
   xmlns:dc="http://purl.org/dc/elements/1.1/"
   xmlns:cc="http://creativecommons.org/ns#"
   xmlns:rdf="http://www.w3.org/1999/02/22-rdf-syntax-ns#"
   xmlns:svg="http://www.w3.org/2000/svg"
   xmlns="http://www.w3.org/2000/svg"
   viewBox="0 0 944.01331 286.79999"
   height="286.79999"
   width="944.01331"
   xml:space="preserve"
   id="svg2"
   version="1.1"><metadata
     id="metadata8"><rdf:RDF><cc:Work
         rdf:about=""><dc:format>image/svg+xml</dc:format><dc:type
           rdf:resource="http://purl.org/dc/dcmitype/StillImage" /></cc:Work></rdf:RDF></metadata><defs
     id="defs6" /><g
     transform="matrix(1.3333333,0,0,-1.3333333,0,286.8)"
     id="g10"><g
       transform="scale(0.1)"
       id="g12"><path
         id="path14"
         style="fill:#1d1b19;fill-opacity:1;fill-rule:nonzero;stroke:none"
         d="m 6261.06,1668.02 753.01,378 H 5913.06 c 162,-87 279,-225 348,-378 z M 5130.05,1305.01 c 0,210 156,360.01 342.01,360.01 186,0 342,-150.01 342,-360.01 0,-207 -156,-356.998 -342,-356.998 -186.01,0 -342.01,149.998 -342.01,356.998 z m 1137.01,0 c 0,363.01 -255,777.01 -795,777.01 -540.01,0 -795.01,-414 -795.01,-777.01 0,-362.998 255,-777.01 795.01,-777.01 540,0 795,414.012 795,777.01 z M 4065.04,573 4707.05,894.012 c -69,128.998 -102,272.998 -102,410.998 0,279.01 138,585.01 426,741.01 h -300 l -192,-531.01 c -60,42.01 -132,66.01 -204.01,66.01 -150,0 -270,-105.01 -270,-279.01 z m -72,-9 v 738.01 c 0,219.01 156,348.01 342,348.01 57.01,0 114.01,-15 162.01,-42 l 159,441 c -66,21 -141,33 -222,33 -225.01,0 -384.01,-117 -462.01,-243 h -6 v 207 h -417 V 564 Z m -678.01,1128.02 162.01,81 v 273 h -474.01 c 138,-81 246,-204 312,-354 z M 2151.02,1305.01 c 0,189 129,363.01 357.01,363.01 228,0 357,-174.01 357,-363.01 0,-201 -141,-362.998 -357,-362.998 -216.01,0 -357.01,161.998 -357.01,362.998 z m 3,-1236.01 v 660.012 h 6 C 2226.02,633 2367.02,528 2598.03,528 c 522,0 720,435.012 720,792.01 0,438.01 -297,762.01 -720,762.01 -225.01,0 -381.01,-102 -465.01,-222 h -6 v 186 h -417 V 69 Z M 1110.01,588 1638.02,852.012 V 2046.02 h -30 z m -84,-24 507.01,1482.02 H 1089.01 L 819.008,1122.01 h -6 l -270,924.01 H 99 L 600.008,564 Z M 0,2115.02 h 597.008 l 159,-543 c 18,-66 45,-165.01 60,-261.01 15,96 42,195.01 60,261.01 l 159.002,543 h 1341.01 c 66,24 141.01,36 222.01,36 87,0 171,-12 246,-36 h 1374.01 c 63,24 135,36 216.01,36 87,0 171,-12 246,-36 h 522 c 81,24 171,36 270.01,36 99,0 189,-12 270,-36 h 1251.01 c 57,0 87,-24 87,-66 0,-30 -18,-57 -54,-75 l -741.01,-369 c 36,-99 54,-201.01 54,-300.01 0,-395.998 -279,-846.01 -867,-846.01 -351.01,0 -594.01,162 -729.01,375.012 L 4065.04,495 h -588 v 1200.02 l -135.01,-69 c 30,-93 48,-195.01 48,-306.01 0,-392.998 -225,-861.01 -792,-861.01 -162.01,0 -288.01,45 -372.01,120 V 0 h -588 V 774.012 L 1077.01,495 H 549.004 L 0,2115.02" /></g></g></svg>